<svg width="42" height="42" fill="none" xmlns="http://www.w3.org/2000/svg"><path opacity=".2" d="M20.996 41A20.004 20.004 0 011 20.996v0A19.996 19.996 0 0120.996 1 19.996 19.996 0 0141 20.996v0A20.004 20.004 0 0120.996 41v0z" stroke="#000" stroke-miterlimit="10"/><g opacity=".8" fill="#000"><path d="M20.995 13.025c2.583 0 2.91 0 3.934.06.618.006 1.23.12 1.808.336.42.155.799.402 1.11.723.322.316.572.698.732 1.12a5.49 5.49 0 01.335 1.807c0 1.024.052 1.334.052 3.925 0 2.59 0 2.91-.052 3.934a5.506 5.506 0 01-.335 1.807 3.305 3.305 0 01-1.842 1.842c-.58.213-1.19.326-1.808.336-1.024 0-1.334.052-3.934.052s-2.9 0-3.925-.052a5.512 5.512 0 01-1.807-.336 3.306 3.306 0 01-1.842-1.842 5.506 5.506 0 01-.336-1.807c-.043-1.025-.052-1.334-.052-3.934s0-2.9.052-3.925c.01-.617.123-1.228.336-1.808.16-.421.41-.803.731-1.119.312-.32.691-.568 1.11-.723a5.285 5.285 0 011.808-.335c1.025 0 1.334-.06 3.925-.06zm0-1.721c-2.634 0-2.97 0-4.002.06a7.032 7.032 0 00-2.359.448 5.044 5.044 0 00-2.849 2.849 6.99 6.99 0 00-.447 2.358c-.052 1.033-.06 1.369-.06 4.003 0 2.634 0 2.978.06 4.011.013.806.164 1.604.447 2.358a5.044 5.044 0 002.85 2.85 7.26 7.26 0 002.358.447c1.033.052 1.369.06 4.002.06 2.634 0 2.979 0 4.012-.06a7.258 7.258 0 002.358-.447 5.046 5.046 0 002.85-2.85 7.031 7.031 0 00.447-2.358c.052-1.033.06-1.369.06-4.011 0-2.643 0-2.97-.06-4.003a6.99 6.99 0 00-.448-2.358 5.044 5.044 0 00-2.849-2.85 7.031 7.031 0 00-2.358-.447c-1.033-.052-1.369-.06-4.012-.06z"/><path d="M20.995 16.004a4.993 4.993 0 100 9.986 4.993 4.993 0 000-9.986zm0 8.237a3.245 3.245 0 110-6.49 3.245 3.245 0 010 6.49zm6.319-8.427a1.17 1.17 0 11-1.154-1.17 1.17 1.17 0 011.171 1.17"/></g></svg>