<svg width="36" height="36" fill="none" xmlns="http://www.w3.org/2000/svg"><path opacity=".2" d="M18.317 35.08A17.043 17.043 0 011.28 18.036v0A17.036 17.036 0 0118.317 1 17.036 17.036 0 0135.36 18.036v0A17.044 17.044 0 0118.317 35.08v0z" stroke="#fff" stroke-miterlimit="10"/><g opacity=".8" fill="#fff"><path d="M18.316 11.246c2.2 0 2.479 0 3.352.05a4.502 4.502 0 011.54.287c.357.132.68.343.946.616.274.269.487.594.623.953.18.494.278 1.015.286 1.54 0 .873.044 1.137.044 3.345 0 2.207 0 2.478-.044 3.351a4.695 4.695 0 01-.286 1.54 2.816 2.816 0 01-1.57 1.57 4.695 4.695 0 01-1.54.286c-.872 0-1.136.044-3.351.044s-2.471 0-3.344-.044a4.694 4.694 0 01-1.54-.286 2.817 2.817 0 01-1.57-1.57 4.695 4.695 0 01-.286-1.54c-.036-.873-.044-1.137-.044-3.351 0-2.215 0-2.472.044-3.345a4.695 4.695 0 01.286-1.54 2.67 2.67 0 01.624-.953c.265-.273.588-.484.946-.616a4.502 4.502 0 011.54-.286c.873 0 1.136-.051 3.344-.051zm0-1.467c-2.244 0-2.53 0-3.41.051a5.992 5.992 0 00-2.01.381 4.3 4.3 0 00-2.427 2.428 5.954 5.954 0 00-.381 2.01c-.044.88-.052 1.166-.052 3.41s0 2.537.052 3.417a6 6 0 00.38 2.01 4.3 4.3 0 002.428 2.427 6.18 6.18 0 002.01.381c.88.044 1.166.052 3.41.052s2.537 0 3.418-.052a6.18 6.18 0 002.009-.38 4.298 4.298 0 002.427-2.428 5.99 5.99 0 00.382-2.01c.044-.88.051-1.166.051-3.417 0-2.252 0-2.53-.051-3.41a5.954 5.954 0 00-.382-2.01 4.3 4.3 0 00-2.427-2.428 5.991 5.991 0 00-2.01-.38c-.88-.045-1.166-.052-3.417-.052z"/><path d="M18.316 13.783a4.254 4.254 0 100 8.507 4.254 4.254 0 000-8.507zm0 7.019a2.765 2.765 0 110-5.53 2.765 2.765 0 010 5.53zm5.383-7.181a.997.997 0 11-.983-.997.997.997 0 01.998.997"/></g></svg>