<svg width="42" height="42" fill="none" xmlns="http://www.w3.org/2000/svg"><path opacity=".2" d="M20.996 41A20.004 20.004 0 011 20.996v0A19.996 19.996 0 0120.996 1 19.996 19.996 0 0141 20.996v0A20.004 20.004 0 0120.996 41v0z" stroke="#000" stroke-miterlimit="10"/><g opacity=".8" fill="#000"><path d="M29.284 20.933l-1.577-1.577a.802.802 0 00-1.134 1.134l1.577 1.577c1.666 1.666 1.664 4.396 0 6.082-1.665 1.666-4.396 1.665-6.083 0l-1.577-1.576a.802.802 0 00-1.134 1.133l1.58 1.581A5.937 5.937 0 0025.117 31a5.88 5.88 0 004.172-1.72c2.285-2.316 2.283-6.06-.004-8.346zm-5.64-5.64l-1.581-1.58c-2.316-2.285-6.06-2.283-8.35.007-2.285 2.316-2.283 6.06.003 8.347l1.577 1.577a.799.799 0 001.134 0 .801.801 0 000-1.134l-1.577-1.577c-1.665-1.666-1.664-4.396 0-6.083 1.666-1.665 4.396-1.664 6.083 0l1.577 1.577a.802.802 0 101.134-1.134z"/><path d="M24.098 22.965l-4.062-4.063a.802.802 0 10-1.134 1.134l4.063 4.062a.799.799 0 001.133 0 .802.802 0 000-1.133z"/></g></svg>