<svg width="36" height="36" fill="none" xmlns="http://www.w3.org/2000/svg"><path opacity=".2" d="M17.956 35.08A17.044 17.044 0 01.92 18.036v0A17.036 17.036 0 0117.956 1 17.036 17.036 0 0135 18.036v0A17.043 17.043 0 0117.956 35.08v0z" stroke="#fff" stroke-miterlimit="10"/><g opacity=".8" clip-path="url(#clip0)"><path d="M15.791 21.06l2.277 1.706 3.722 2.754c.683.385 1.163.182 1.348-.634l2.443-11.568v-.001c.217-1.02-.364-1.418-1.03-1.168l-14.36 5.555c-.98.385-.965.937-.167 1.187l3.672 1.154 8.528-5.392c.401-.269.766-.12.466.149l-6.9 6.258z" fill="#fff"/></g><defs><clipPath id="clip0"><path fill="#fff" transform="translate(9.44 9.52)" d="M0 0h16.188v16.188H0z"/></clipPath></defs></svg>