<svg width="42" height="42" fill="none" xmlns="http://www.w3.org/2000/svg"><path opacity=".2" d="M20.996 41A20.004 20.004 0 011 20.996v0A19.996 19.996 0 0120.996 1 19.996 19.996 0 0141 20.996v0A20.004 20.004 0 0120.996 41v0z" stroke="#000" stroke-miterlimit="10"/><g opacity=".8" clip-path="url(#clip0)"><path d="M18.455 24.545l2.672 2.002 4.369 3.232c.801.452 1.366.214 1.582-.744l2.867-13.578h.001c.254-1.198-.428-1.666-1.209-1.372l-16.855 6.52c-1.15.452-1.133 1.1-.195 1.394l4.309 1.354 10.009-6.329c.471-.315.9-.14.547.175l-8.097 7.346z" fill="#000"/></g><defs><clipPath id="clip0"><path fill="#fff" transform="translate(11 11)" d="M0 0h19v19H0z"/></clipPath></defs></svg>