<svg width="36" height="36" fill="none" xmlns="http://www.w3.org/2000/svg"><path opacity=".2" d="M18.04 35.08A17.049 17.049 0 011 18.036v0A17.034 17.034 0 0118.04 1a17.042 17.042 0 0117.04 17.036v0A17.042 17.042 0 0118.04 35.08v0z" stroke="#fff" stroke-miterlimit="10"/><path opacity=".8" d="M11.905 21.996a7.011 7.011 0 003.688 1.154c1.308.03 2.6-.309 3.734-.981a7.258 7.258 0 002.696-2.832c.63-1.18.932-2.514.874-3.858.5-.366.932-.82 1.277-1.342a4.761 4.761 0 01-1.444.407c.528-.32.925-.828 1.115-1.427a5.05 5.05 0 01-1.595.63 2.49 2.49 0 00-1.424-.784 2.45 2.45 0 00-1.593.27 2.552 2.552 0 00-1.104 1.212 2.645 2.645 0 00-.156 1.653c-1-.05-1.977-.316-2.87-.78a7.161 7.161 0 01-2.311-1.915 2.643 2.643 0 00-.272 1.879 2.58 2.58 0 001.053 1.56 2.458 2.458 0 01-1.116-.32 2.63 2.63 0 00.559 1.653c.367.468.882.79 1.455.91a2.52 2.52 0 01-1.116.045c.16.513.47.961.89 1.282.421.321.929.498 1.452.506a4.97 4.97 0 01-1.789.937 4.887 4.887 0 01-2.003.141z" fill="#fff"/></svg>