<svg width="42" height="42" viewBox="0 0 42 42" fill="none" xmlns="http://www.w3.org/2000/svg">
<path opacity="0.2" d="M20.9957 41C15.6917 40.9977 10.6058 38.8891 6.85608 35.1378C3.10641 31.3866 1 26.2997 1 20.9957V20.9957C1 15.6925 3.10668 10.6065 6.8566 6.85661C10.6065 3.10669 15.6925 1 20.9957 1C23.6223 0.998871 26.2234 1.51524 28.6504 2.51962C31.0773 3.52399 33.2827 4.99667 35.1404 6.85356C36.998 8.71044 38.4717 10.9151 39.4771 13.3417C40.4825 15.7682 41 18.3691 41 20.9957V20.9957C41 26.3012 38.8924 31.3894 35.1409 35.1409C31.3893 38.8924 26.3012 41 20.9957 41V41Z" stroke="black" stroke-miterlimit="10"/>
<g opacity="0.8">
<path d="M20.9954 13.0253C23.5778 13.0253 23.9048 13.0253 24.9292 13.0855C25.5467 13.0909 26.1585 13.2046 26.7368 13.4212C27.1562 13.5763 27.5357 13.8234 27.8472 14.1443C28.1691 14.4599 28.4188 14.8417 28.5788 15.2633C28.7912 15.8427 28.9047 16.4538 28.9145 17.0709C28.9145 18.0952 28.9662 18.4051 28.9662 20.996C28.9662 23.5869 28.9662 23.9054 28.9145 24.9297C28.9047 25.5468 28.7912 26.1578 28.5788 26.7373C28.4126 27.1531 28.1636 27.5308 27.8469 27.8475C27.5303 28.1641 27.1526 28.4131 26.7368 28.5794C26.1573 28.7917 25.5463 28.9052 24.9292 28.9151C23.9048 28.9151 23.595 28.9667 20.9954 28.9667C18.3959 28.9667 18.0946 28.9667 17.0703 28.9151C16.4532 28.9052 15.8422 28.7917 15.2627 28.5794C14.8469 28.4131 14.4692 28.1641 14.1526 27.8475C13.8359 27.5308 13.5869 27.1531 13.4207 26.7373C13.2083 26.1578 13.0948 25.5468 13.085 24.9297C13.0419 23.9054 13.0333 23.5955 13.0333 20.996C13.0333 18.3965 13.0333 18.0952 13.085 17.0709C13.0948 16.4538 13.2083 15.8427 13.4207 15.2633C13.5807 14.8417 13.8303 14.4599 14.1523 14.1443C14.4638 13.8234 14.8432 13.5763 15.2627 13.4212C15.841 13.2046 16.4528 13.0909 17.0703 13.0855C18.0946 13.0855 18.4045 13.0253 20.9954 13.0253ZM20.9954 11.3037C18.3615 11.3037 18.0258 11.3037 16.9929 11.364C16.1868 11.3769 15.3891 11.5283 14.6343 11.8116C13.9891 12.0652 13.4031 12.4491 12.9129 12.9393C12.4227 13.4295 12.0388 14.0155 11.7852 14.6607C11.5011 15.4152 11.3497 16.2131 11.3376 17.0192C11.286 18.0521 11.2773 18.3879 11.2773 21.0218C11.2773 23.6558 11.2773 24.0001 11.3376 25.033C11.3505 25.839 11.5019 26.6368 11.7852 27.3915C12.0388 28.0367 12.4227 28.6227 12.9129 29.1129C13.4031 29.6031 13.9891 29.987 14.6343 30.2407C15.3902 30.5198 16.1873 30.671 16.9929 30.6883C18.0258 30.7399 18.3615 30.7485 20.9954 30.7485C23.6294 30.7485 23.9737 30.7485 25.0066 30.6883C25.8122 30.671 26.6093 30.5198 27.3651 30.2407C28.0104 29.987 28.5963 29.6031 29.0866 29.1129C29.5768 28.6227 29.9607 28.0367 30.2143 27.3915C30.4976 26.6368 30.649 25.839 30.6619 25.033C30.7135 24.0001 30.7221 23.6644 30.7221 21.0218C30.7221 18.3793 30.7221 18.0521 30.6619 17.0192C30.6498 16.2131 30.4984 15.4152 30.2143 14.6607C29.9607 14.0155 29.5768 13.4295 29.0866 12.9393C28.5963 12.4491 28.0104 12.0652 27.3651 11.8116C26.6104 11.5283 25.8126 11.3769 25.0066 11.364C23.9737 11.3123 23.638 11.3037 20.9954 11.3037Z" fill="black"/>
<path d="M20.9954 16.0037C20.008 16.0037 19.0427 16.2965 18.2217 16.845C17.4007 17.3936 16.7608 18.1733 16.383 19.0856C16.0051 19.9978 15.9062 21.0017 16.0989 21.9701C16.2915 22.9386 16.767 23.8281 17.4652 24.5263C18.1634 25.2245 19.053 25.7 20.0214 25.8927C20.9899 26.0853 21.9937 25.9864 22.9059 25.6086C23.8182 25.2307 24.5979 24.5908 25.1465 23.7698C25.6951 22.9488 25.9879 21.9836 25.9879 20.9961C25.9879 19.672 25.4619 18.4022 24.5256 17.4659C23.5893 16.5296 22.3195 16.0037 20.9954 16.0037ZM20.9954 24.2412C20.3536 24.2412 19.7262 24.0509 19.1925 23.6943C18.6589 23.3378 18.2429 22.8309 17.9973 22.238C17.7517 21.645 17.6874 20.9925 17.8126 20.363C17.9379 19.7335 18.2469 19.1553 18.7008 18.7015C19.1546 18.2477 19.7328 17.9386 20.3623 17.8134C20.9918 17.6882 21.6443 17.7524 22.2372 17.998C22.8302 18.2437 23.337 18.6596 23.6936 19.1932C24.0502 19.7269 24.2405 20.3543 24.2405 20.9961C24.2405 21.4223 24.1566 21.8443 23.9935 22.238C23.8304 22.6317 23.5914 22.9894 23.29 23.2908C22.9887 23.5921 22.631 23.8311 22.2372 23.9942C21.8435 24.1573 21.4216 24.2412 20.9954 24.2412Z" fill="black"/>
<path d="M27.3139 15.8141C27.3139 16.0463 27.2448 16.2733 27.1154 16.4662C26.986 16.6591 26.8021 16.8091 26.5872 16.8972C26.3723 16.9852 26.1361 17.0074 25.9085 16.9608C25.681 16.9142 25.4724 16.801 25.3094 16.6356C25.1464 16.4701 25.0363 16.2599 24.9931 16.0317C24.9499 15.8035 24.9755 15.5676 25.0668 15.354C25.158 15.1405 25.3108 14.9588 25.5055 14.8323C25.7003 14.7058 25.9283 14.64 26.1605 14.6434C26.471 14.6434 26.7688 14.7668 26.9883 14.9863C27.2078 15.2058 27.3312 15.5036 27.3312 15.8141" fill="black"/>
</g>
</svg>
