<svg width="36" height="36" viewBox="0 0 36 36" fill="none" xmlns="http://www.w3.org/2000/svg">
<path opacity="0.2" d="M17.6796 35.08C13.1604 35.08 8.82617 33.2847 5.63055 30.0891C2.43493 26.8935 0.639648 22.5593 0.639648 18.04V18.04C0.639648 13.5207 2.43493 9.18652 5.63055 5.9909C8.82617 2.79528 13.1604 1 17.6796 1V1C22.1989 1 26.5331 2.79528 29.7287 5.9909C32.9244 9.18652 34.7197 13.5207 34.7197 18.04V18.04C34.7197 20.2777 34.2789 22.4935 33.4226 24.5609C32.5662 26.6283 31.311 28.5068 29.7287 30.0891C28.1464 31.6714 26.268 32.9266 24.2006 33.7829C22.1332 34.6393 19.9174 35.08 17.6796 35.08V35.08Z" stroke="white" stroke-miterlimit="10"/>
<path opacity="0.8" d="M15.3765 27.1722H19.0441V17.959H21.6042L21.8829 14.8782H19.0441V13.125C19.0441 12.3915 19.1835 12.1128 19.8877 12.1128H21.8829V8.91455H19.3302C16.5941 8.91455 15.3618 10.1175 15.3618 12.4208V14.8855H13.4473V18.003H15.3618L15.3765 27.1722Z" fill="white"/>
</svg>
