<svg width="42" height="42" viewBox="0 0 42 42" fill="none" xmlns="http://www.w3.org/2000/svg">
<path opacity="0.2" d="M21 41C15.6957 41 10.6086 38.8929 6.85786 35.1421C3.10714 31.3914 1 26.3043 1 21V21C1 15.6957 3.10714 10.6086 6.85786 6.85787C10.6086 3.10714 15.6957 1 21 1V1C26.3043 1 31.3914 3.10714 35.1421 6.85787C38.8929 10.6086 41 15.6957 41 21V21C41 23.6264 40.4827 26.2272 39.4776 28.6537C38.4725 31.0802 36.9993 33.285 35.1421 35.1421C33.285 36.9993 31.0802 38.4725 28.6537 39.4776C26.2272 40.4827 23.6264 41 21 41V41Z" stroke="black" stroke-miterlimit="10"/>
<path opacity="0.8" d="M18.2965 31.7187H22.6013V20.9051H25.6061L25.9332 17.2891H22.6013V15.2314C22.6013 14.3705 22.7649 14.0433 23.5914 14.0433H25.9332V10.2896H22.9371C19.7257 10.2896 18.2793 11.7015 18.2793 14.4049V17.2977H16.0322V20.9568H18.2793L18.2965 31.7187Z" fill="black"/>
</svg>
