<svg width="42" height="42" viewBox="0 0 42 42" fill="none" xmlns="http://www.w3.org/2000/svg">
<path opacity="0.2" d="M20.9957 41C15.6917 40.9977 10.6058 38.8891 6.85608 35.1378C3.10641 31.3866 1 26.2997 1 20.9957V20.9957C1 15.6925 3.10668 10.6065 6.8566 6.85661C10.6065 3.10669 15.6925 1 20.9957 1C23.6223 0.998871 26.2234 1.51524 28.6504 2.51962C31.0773 3.52399 33.2827 4.99667 35.1404 6.85356C36.998 8.71044 38.4717 10.9151 39.4771 13.3417C40.4825 15.7682 41 18.3691 41 20.9957V20.9957C41 26.3012 38.8924 31.3894 35.1409 35.1409C31.3893 38.8924 26.3012 41 20.9957 41V41Z" stroke="black" stroke-miterlimit="10"/>
<g opacity="0.8">
<path d="M29.2837 20.9325L27.707 19.3556C27.3938 19.0426 26.8865 19.0426 26.5732 19.3556C26.2599 19.6688 26.2599 20.1767 26.5732 20.4897L28.1499 22.0666C29.8156 23.7326 29.814 26.4629 28.1499 28.1494C26.4845 29.8148 23.7542 29.8135 22.0671 28.1494L20.4901 26.5727C20.1772 26.2595 19.6693 26.2595 19.356 26.5727C19.0428 26.886 19.0428 27.3935 19.356 27.7065L20.9367 29.2872C22.0933 30.4282 23.6066 30.9992 25.1167 30.9992C26.6301 30.9992 28.1408 30.4258 29.2876 29.2795C31.5725 26.9635 31.5708 23.2194 29.2837 20.9325Z" fill="black"/>
<path d="M23.6436 15.2934L22.063 13.7124C19.7475 11.428 16.0032 11.4298 13.7123 13.7202C11.4276 16.0359 11.4295 19.7799 13.7163 22.0668L15.2933 23.6438C15.4497 23.8004 15.6549 23.8787 15.8602 23.8787C16.0652 23.8787 16.2705 23.8004 16.4271 23.6435C16.7404 23.3305 16.7404 22.8227 16.4271 22.5097L14.8502 20.9327C13.1845 19.267 13.1861 16.5367 14.8502 14.8502C16.5161 13.1848 19.2464 13.1864 20.9329 14.8502L22.5099 16.4272C22.8232 16.7404 23.3304 16.7404 23.6437 16.4272C23.9569 16.1142 23.9569 15.6064 23.6436 15.2934Z" fill="black"/>
<path d="M24.0984 22.9646L20.0357 18.9019C19.7228 18.5887 19.2149 18.5887 18.9019 18.9019C18.5887 19.2149 18.5887 19.7227 18.9019 20.0358L22.9646 24.0984C23.1212 24.255 23.3262 24.3333 23.5315 24.3333C23.7368 24.3333 23.9418 24.255 24.0984 24.0984C24.4116 23.7854 24.4116 23.2776 24.0984 22.9646Z" fill="black"/>
</g>
</svg>
