<svg width="36" height="36" viewBox="0 0 36 36" fill="none" xmlns="http://www.w3.org/2000/svg">
<path opacity="0.2" d="M17.9563 35.08C13.4373 35.0781 9.10403 33.2815 5.90931 30.0854C2.71458 26.8893 0.919921 22.5553 0.919922 18.0363V18.0363C0.919922 13.518 2.71482 9.18476 5.90975 5.98983C9.10468 2.7949 13.4379 1 17.9563 1C20.1941 0.999038 22.4102 1.43899 24.478 2.29471C26.5458 3.15044 28.4248 4.40517 30.0075 5.98723C31.5903 7.5693 32.8458 9.44769 33.7024 11.5151C34.559 13.5825 34.9999 15.7985 34.9999 18.0363V18.0363C34.9999 22.5566 33.2043 26.8917 30.0079 30.088C26.8116 33.2843 22.4765 35.08 17.9563 35.08V35.08Z" stroke="white" stroke-miterlimit="10"/>
<g opacity="0.8" clip-path="url(#clip0)">
<path d="M15.7915 21.0606L18.068 22.7659L21.79 25.5203C22.4726 25.9047 22.9535 25.7022 23.1376 24.8857L25.5807 13.3176L25.5814 13.317C25.7979 12.2973 25.2165 11.8986 24.5514 12.1487L10.191 17.7044C9.21091 18.0888 9.22575 18.6409 10.0244 18.8911L13.6958 20.045L22.2237 14.6529C22.625 14.3843 22.9899 14.5329 22.6898 14.8015L15.7915 21.0606Z" fill="white"/>
</g>
<defs>
<clipPath id="clip0">
<rect width="16.188" height="16.188" fill="white" transform="translate(9.43945 9.52002)"/>
</clipPath>
</defs>
</svg>
