<svg width="42" height="42" viewBox="0 0 42 42" fill="none" xmlns="http://www.w3.org/2000/svg">
<path opacity="0.2" d="M20.9957 41C15.6917 40.9977 10.6058 38.8891 6.85608 35.1378C3.10641 31.3866 1 26.2997 1 20.9957V20.9957C1 15.6925 3.10668 10.6065 6.8566 6.85661C10.6065 3.10669 15.6925 1 20.9957 1C23.6223 0.998871 26.2234 1.51524 28.6504 2.51962C31.0773 3.52399 33.2827 4.99667 35.1404 6.85356C36.998 8.71044 38.4717 10.9151 39.4771 13.3417C40.4825 15.7682 41 18.3691 41 20.9957V20.9957C41 26.3012 38.8924 31.3894 35.1409 35.1409C31.3893 38.8924 26.3012 41 20.9957 41V41Z" stroke="black" stroke-miterlimit="10"/>
<g opacity="0.8" clip-path="url(#clip0)">
<path d="M18.4554 24.5451L21.1274 26.5467L25.4959 29.7794C26.2971 30.2306 26.8616 29.993 27.0777 29.0346L29.9452 15.4571L29.946 15.4563C30.2001 14.2595 29.5177 13.7915 28.7371 14.0851L11.8821 20.6059C10.7318 21.0571 10.7492 21.7051 11.6865 21.9987L15.9957 23.3531L26.005 17.0243C26.476 16.7091 26.9043 16.8835 26.552 17.1987L18.4554 24.5451Z" fill="black"/>
</g>
<defs>
<clipPath id="clip0">
<rect width="19" height="19" fill="white" transform="translate(11 11)"/>
</clipPath>
</defs>
</svg>
