<svg width="36" height="36" viewBox="0 0 36 36" fill="none" xmlns="http://www.w3.org/2000/svg">
<path opacity="0.2" d="M18.04 35.08C13.52 35.0781 9.18586 33.2815 5.99045 30.0854C2.79504 26.8893 1 22.5553 1 18.0363V18.0363C1 13.518 2.79528 9.18476 5.9909 5.98983C9.18652 2.79489 13.5207 1 18.04 1C22.5593 1 26.8935 2.79489 30.0891 5.98983C33.2847 9.18476 35.08 13.518 35.08 18.0363V18.0363C35.08 22.5553 33.2849 26.8893 30.0895 30.0854C26.8941 33.2815 22.56 35.0781 18.04 35.08V35.08Z" stroke="white" stroke-miterlimit="10"/>
<path opacity="0.8" d="M11.9053 21.9961C13.0084 22.7206 14.2839 23.1198 15.5926 23.1503C16.9014 23.1808 18.1931 22.8414 19.3271 22.169C20.461 21.4967 21.3936 20.5172 22.0231 19.3374C22.6526 18.1576 22.9549 16.8228 22.897 15.4785C23.3967 15.1128 23.8292 14.6586 24.1741 14.1372C23.716 14.3487 23.2287 14.486 22.7297 14.5442C23.2584 14.2242 23.6551 13.7165 23.845 13.1168C23.3515 13.4174 22.8124 13.6305 22.2501 13.7474C21.8726 13.3318 21.3722 13.0561 20.8265 12.963C20.2808 12.87 19.7205 12.9648 19.2327 13.2329C18.7449 13.5009 18.3569 13.9271 18.1291 14.4451C17.9012 14.9632 17.8463 15.5441 17.9728 16.0976C16.9735 16.0477 15.9958 15.7821 15.1031 15.3179C14.2105 14.8537 13.423 14.2014 12.792 13.4034C12.4722 13.9713 12.3749 14.643 12.5199 15.282C12.665 15.921 13.0414 16.4791 13.5727 16.8428C13.1817 16.8267 12.7997 16.7167 12.4574 16.5218C12.4508 17.1229 12.6482 17.7075 13.0156 18.1751C13.3831 18.6428 13.8975 18.9642 14.4706 19.0841C14.1065 19.1832 13.7258 19.1988 13.3552 19.13C13.5141 19.6427 13.8257 20.0913 14.2459 20.4122C14.6662 20.7331 15.174 20.9102 15.6974 20.9184C15.1686 21.3513 14.56 21.6699 13.9084 21.8551C13.2567 22.0403 12.5754 22.0883 11.9053 21.9961Z" fill="white"/>
</svg>
